# xmcd CD database file
#
# Track frame offsets:
#	150
#	27707
#	45441
#	62161
#	82553
#	87580
#	106324
#	126301
#	143503
#	166883
#	172387
#	192709
#	211321
#	228626
#	235045
#	254587
#	279607
#	303239
#
# Disc length: 4234 seconds
#
# Revision: 5
# Processed by: cddbd v1.4PL0 Copyright (c) Steve Scherf et al.
# Submitted via: CDex 1.40Release
#
DISCID=04108812
DTITLE=Tori Amos - Boys For Pele
DYEAR=1996
DGENRE=Blues
TTITLE0=Beauty Queen - Horses
TTITLE1=Blood Roses
TTITLE2=Father Lucifer
TTITLE3=Professional Widow
TTITLE4=Mr Zebra
TTITLE5=Marianne
TTITLE6=Caught a Lite Sneeze
TTITLE7=Muhammad My Friend
TTITLE8=Hey Jupiter
TTITLE9=Way Down
TTITLE10=Little Amsterdam
TTITLE11=Talula
TTITLE12=Not The Red Baron
TTITLE13=Agent Orange
TTITLE14=Doughnut Song
TTITLE15=In The Springtime of His Voodoo
TTITLE16=Putting The Damage On
TTITLE17=Twinkle
EXTD=YEAR: 1996 ID3G: 0
EXTT0=
EXTT1=
EXTT2=
EXTT3=
EXTT4=
EXTT5=
EXTT6=
EXTT7=
EXTT8=
EXTT9=
EXTT10=
EXTT11=
EXTT12=
EXTT13=
EXTT14=
EXTT15=
EXTT16=
EXTT17=
PLAYORDER=
